<svg width="32" height="32" viewBox="0 0 32 32" fill="none" xmlns="http://www.w3.org/2000/svg">
<rect width="32" height="32" fill="#E6EDC9"/>
<path d="M24.6389 24.6395C24.6389 24.6395 20.7774 20.5462 14.9854 23.4037C14.9854 23.4037 20.9319 28.9642 24.6389 24.6395Z" fill="#A0BE28"/>
<path d="M24.6397 24.6389C24.6397 24.6389 20.5467 20.7776 23.404 14.9854C23.404 14.9854 28.9645 20.9321 24.6397 24.6389ZM19.0278 19.0281C19.0278 19.0281 15.1663 14.9349 9.375 17.7924C9.375 17.7924 15.3208 23.3529 19.0278 19.0281Z" fill="#C3DC4B"/>
<path d="M19.0272 19.0273C19.0272 19.0273 14.9342 15.166 17.7917 9.375C17.7917 9.375 23.352 15.3205 19.0272 19.0273ZM13.4152 13.4165C13.4152 13.4165 9.55397 9.3235 3.76172 12.1807C3.76172 12.1807 9.70822 17.7413 13.4152 13.4165Z" fill="#A0BE28"/>
<path d="M13.4163 13.4161C13.4163 13.4161 9.32459 9.55457 12.1808 3.76257C12.1808 3.76257 17.7411 9.70907 13.4163 13.4161Z" fill="#C3DC4B"/>
<path d="M9.00028 9.00004C1.08403 8.21354 1.84603 1.84554 1.84603 1.84554C1.84603 1.84554 8.21403 1.08354 9.00028 9.00004Z" fill="#A0BE28"/>
<path d="M30.4833 29.8651L25.2678 24.6501C26.136 23.8129 26.6536 22.6771 26.7158 21.4726C26.8998 18.1251 23.8533 14.8251 23.7248 14.6866C23.6765 14.6349 23.6163 14.5957 23.5495 14.5723C23.4827 14.549 23.4112 14.5422 23.3412 14.5525C23.2712 14.5629 23.2048 14.5901 23.1476 14.6317C23.0904 14.6734 23.0441 14.7283 23.0128 14.7918C21.6086 17.6381 21.8223 20.0573 22.4408 21.8216L19.6561 19.0381C19.8869 18.8091 20.0962 18.5593 20.2811 18.2918C20.3146 18.2444 20.3383 18.1909 20.3509 18.1342C20.3635 18.0776 20.3647 18.019 20.3544 17.9618C20.3442 17.9047 20.3226 17.8502 20.2911 17.8015C20.2596 17.7528 20.2187 17.7108 20.1707 17.6781C20.1228 17.6453 20.0689 17.6224 20.012 17.6107C19.9552 17.599 19.8966 17.5988 19.8396 17.6099C19.7827 17.6211 19.7285 17.6435 19.6803 17.6758C19.6321 17.7081 19.5908 17.7497 19.5588 17.7981C19.4084 18.0166 19.2385 18.2211 19.0513 18.4091C18.2303 17.4426 16.1443 14.4091 17.9048 10.1841C18.6631 11.1341 20.1611 13.2696 20.2328 15.4046C20.2367 15.5206 20.2865 15.6303 20.3713 15.7097C20.4561 15.789 20.5689 15.8313 20.6849 15.8275C20.801 15.8236 20.9107 15.7738 20.99 15.689C21.0693 15.6042 21.1117 15.4914 21.1078 15.3753C20.9998 12.2001 18.2296 9.20233 18.1118 9.07633C18.0635 9.02462 18.0034 8.98541 17.9366 8.96206C17.8698 8.93871 17.7983 8.93192 17.7283 8.94227C17.6583 8.95262 17.5919 8.9798 17.5347 9.02148C17.4775 9.06317 17.4313 9.1181 17.4001 9.18158C15.9963 12.0253 16.1943 14.4291 16.8046 16.1866L14.0448 13.4268C14.9129 12.5899 15.4306 11.4543 15.4931 10.2501C15.6778 6.90233 12.6303 3.60258 12.4998 3.46358C12.4515 3.41187 12.3913 3.37266 12.3245 3.34932C12.2577 3.32597 12.1862 3.31918 12.1162 3.32953C12.0462 3.33988 11.9798 3.36706 11.9226 3.40874C11.8654 3.45042 11.8191 3.50535 11.7878 3.56883C10.3836 6.41533 10.5976 8.83458 11.2161 10.5988L9.41356 8.79633C9.16356 6.53058 8.44057 4.73808 7.25582 3.47358C7.21691 3.43025 7.16976 3.39512 7.11711 3.37026C7.06445 3.34539 7.00737 3.33129 6.94919 3.32877C6.89102 3.32625 6.83293 3.33537 6.77833 3.35559C6.72372 3.37582 6.67371 3.40673 6.63121 3.44654C6.58871 3.48634 6.55458 3.53423 6.53083 3.58739C6.50708 3.64055 6.49418 3.69792 6.49288 3.75614C6.49159 3.81435 6.50193 3.87224 6.52329 3.9264C6.54466 3.98057 6.57663 4.02992 6.61731 4.07158C7.50431 5.01858 8.10207 6.32158 8.40582 7.94808C8.34482 7.94425 8.2837 7.95337 8.22649 7.97485C8.16927 7.99634 8.11725 8.02969 8.07385 8.07271C8.03045 8.11574 7.99664 8.16746 7.97466 8.22449C7.95268 8.28152 7.94302 8.34255 7.94631 8.40357C5.99431 8.03832 4.51157 7.25183 3.54132 6.04808C2.7038 4.96508 2.25395 3.63235 2.26381 2.26333C3.01636 2.26307 3.7632 2.39394 4.47082 2.65008C4.57962 2.69039 4.69998 2.68583 4.80543 2.6374C4.91087 2.58896 4.99275 2.50063 5.03306 2.39183C5.07338 2.28302 5.06882 2.16266 5.02039 2.05722C4.97195 1.95177 4.88362 1.86989 4.77482 1.82958C3.82297 1.47494 2.80527 1.33204 1.79257 1.41083C1.69524 1.42251 1.60465 1.46653 1.53534 1.53585C1.46602 1.60516 1.422 1.69575 1.41032 1.79308C1.27713 3.51459 1.79116 5.22384 2.85181 6.58633C4.12481 8.17133 6.12482 9.12208 8.79757 9.41683L10.5976 11.2168C8.83356 10.5988 6.41506 10.3861 3.57007 11.7896C3.5068 11.8209 3.45204 11.867 3.41046 11.924C3.36887 11.981 3.34171 12.0473 3.33127 12.1171C3.32083 12.1869 3.32743 12.2581 3.35051 12.3248C3.37359 12.3915 3.41247 12.4517 3.46381 12.5001C6.22931 15.0853 10.5778 16.8901 13.4261 14.0448L16.1898 16.8091C15.8622 16.6945 15.5278 16.6003 15.1886 16.5271C15.0751 16.5029 14.9566 16.5248 14.8592 16.5879C14.7618 16.6511 14.6935 16.7503 14.6693 16.8638C14.6451 16.9773 14.667 17.0958 14.7302 17.1932C14.7933 17.2906 14.8926 17.3589 15.0061 17.3831C16.2583 17.6559 17.4259 18.2278 18.4091 19.0501C16.0873 21.3466 12.7341 19.9373 10.1841 17.9038C10.8862 17.6075 11.6233 17.4022 12.3776 17.2928C12.4925 17.2767 12.5963 17.2156 12.6662 17.1229C12.7361 17.0303 12.7663 16.9136 12.7502 16.7987C12.7341 16.6838 12.673 16.5799 12.5803 16.5101C12.4876 16.4402 12.371 16.41 12.2561 16.4261C11.1857 16.5843 10.1475 16.913 9.18106 17.3996C9.11765 17.4309 9.06279 17.4772 9.02117 17.5343C8.97954 17.5915 8.95241 17.658 8.94209 17.7279C8.93176 17.7979 8.93856 17.8693 8.96189 17.9361C8.98523 18.0029 9.02441 18.063 9.07607 18.1113C10.7086 19.6388 13.4971 21.2386 15.8598 21.1033C17.0642 21.0413 18.2001 20.5239 19.0373 19.6558L21.8193 22.4386C20.0553 21.8208 17.6371 21.6078 14.7918 23.0116C14.7284 23.0429 14.6735 23.0892 14.6319 23.1464C14.5903 23.2036 14.5632 23.2701 14.5528 23.3401C14.5425 23.4101 14.5493 23.4815 14.5727 23.5483C14.596 23.6151 14.6352 23.6752 14.6868 23.7236C17.4523 26.3086 21.7998 28.1133 24.6498 25.2683L29.8653 30.4838C29.9474 30.5659 30.0587 30.612 30.1747 30.612C30.2907 30.612 30.402 30.5659 30.4841 30.4838C30.5661 30.4018 30.6122 30.2905 30.6122 30.1745C30.6122 30.0584 30.5661 29.9471 30.4841 29.8651H30.4833ZM4.57232 12.2928C8.84382 10.5091 11.8661 12.6331 12.7993 13.4381C10.4788 15.7368 7.12282 14.3266 4.57232 12.2928ZM15.7951 23.5158C20.0671 21.7323 23.0888 23.8561 24.0221 24.6611C21.7021 26.9591 18.3461 25.5501 15.7951 23.5158ZM23.5161 15.7956C25.5598 18.3588 26.9516 21.7058 24.6643 24.0191C23.8723 23.0813 21.7581 20.0251 23.5161 15.7956ZM12.2931 4.57258C14.3371 7.13608 15.7286 10.4828 13.4413 12.7976C12.6498 11.8586 10.5351 8.80258 12.2931 4.57258Z" fill="#2A2A2A"/>
</svg>
